<svg width="40" height="40" viewBox="0 0 40 40" fill="none" xmlns="http://www.w3.org/2000/svg">
<rect width="40" height="40" fill="#EFFBF6"/>
<path d="M26 28L29.824 24.176C29.9366 24.0636 29.9999 23.9111 30 23.752V18.5C30 18.1022 29.842 17.7206 29.5607 17.4393C29.2794 17.158 28.8978 17 28.5 17C28.1022 17 27.7206 17.158 27.4393 17.4393C27.158 17.7206 27 18.1022 27 18.5V23" stroke="#2A5944" stroke-width="1.5" stroke-linecap="round" stroke-linejoin="round"/>
<path d="M26 24L26.858 23.142C26.9031 23.097 26.9388 23.0435 26.9632 22.9847C26.9876 22.9258 27.0001 22.8627 27 22.799C26.9999 22.7091 26.9747 22.621 26.9274 22.5445C26.8801 22.468 26.8124 22.4062 26.732 22.366L26.289 22.145C25.9137 21.9573 25.4889 21.8925 25.0747 21.9596C24.6604 22.0267 24.2778 22.2224 23.981 22.519L23.086 23.414C22.7109 23.789 22.5001 24.2976 22.5 24.828V28M14 28L10.176 24.176C10.0634 24.0636 10.0001 23.9111 10 23.752V18.5C10 18.1022 10.158 17.7206 10.4393 17.4393C10.7206 17.158 11.1022 17 11.5 17C11.8978 17 12.2794 17.158 12.5607 17.4393C12.842 17.7206 13 18.1022 13 18.5V23" stroke="#2A5944" stroke-width="1.5" stroke-linecap="round" stroke-linejoin="round"/>
<path d="M14 24L13.142 23.142C13.097 23.097 13.0612 23.0435 13.0369 22.9846C13.0125 22.9258 13 22.8627 13 22.799C13 22.616 13.104 22.449 13.268 22.366L13.711 22.145C14.0863 21.9573 14.5111 21.8925 14.9253 21.9596C15.3396 22.0267 15.7222 22.2224 16.019 22.519L16.914 23.414C17.2891 23.789 17.4999 24.2976 17.5 24.828V28M21.667 20H18.333V17.667H16V14.333H18.333V12H21.667V14.333H24V17.667H21.667V20Z" stroke="#2A5944" stroke-width="1.5" stroke-linecap="round" stroke-linejoin="round"/>
</svg>
