<svg width="71" height="70" viewBox="0 0 71 70" fill="none" xmlns="http://www.w3.org/2000/svg">
<path d="M15.8125 6.5625L25.1444 29.225C19.5531 32.6987 15.8125 38.8806 15.8125 45.9375C15.8125 56.7919 24.6434 65.625 35.5 65.625C46.3566 65.625 55.1875 56.7919 55.1875 45.9375C55.1875 38.8828 51.4469 32.7009 45.8556 29.225L55.1875 6.5625H50.4581L41.9006 27.3394C40.4431 26.8318 38.9304 26.4991 37.3944 26.3484L45.5341 6.5625H40.8047L32.5972 26.4906C31.4068 26.6649 30.2352 26.949 29.0972 27.3394L20.5419 6.5625H15.8125ZM25.4637 6.5625L31.0222 20.0681L33.3891 14.3216L30.1953 6.5625H25.4637ZM35.5 30.625C43.9416 30.625 50.8125 37.4937 50.8125 45.9375C50.8125 54.3812 43.9416 61.25 35.5 61.25C27.0584 61.25 20.1875 54.3812 20.1875 45.9375C20.1875 37.4937 27.0584 30.625 35.5 30.625ZM35.5 37.5419L32.945 43.2731L26.75 43.9512L31.3875 48.1162L30.0816 54.2631L35.5 51.1394L40.9184 54.2675L39.6147 48.1206L44.25 43.9491L38.055 43.2709L35.5 37.5397V37.5419Z" fill="#FBFBFB"/>
</svg>
