<svg width="40" height="40" viewBox="0 0 40 40" fill="none" xmlns="http://www.w3.org/2000/svg">
<rect width="40" height="40" fill="#EFFBF6"/>
<path d="M26.25 11.25C26.4312 11.25 26.6063 11.3156 26.7429 11.4348C26.8795 11.5539 26.9684 11.7184 26.993 11.898L27 12V28C26.9999 28.19 26.9278 28.3729 26.798 28.5118C26.6683 28.6506 26.4907 28.7351 26.3011 28.748C26.1115 28.761 25.9241 28.7015 25.7767 28.5816C25.6293 28.4617 25.5329 28.2902 25.507 28.102L25.5 28V23H23.25C23.0688 23 22.8937 22.9344 22.7571 22.8152C22.6205 22.6961 22.5316 22.5316 22.507 22.352L22.5 22.25V15C22.5 14.0054 22.8951 13.0516 23.5983 12.3483C24.3016 11.6451 25.2554 11.25 26.25 11.25ZM20.25 11.25C20.4312 11.25 20.6063 11.3156 20.7429 11.4348C20.8795 11.5539 20.9684 11.7184 20.993 11.898L21 12V16C21 17.953 19.6 19.578 17.75 19.93V28C17.7499 28.19 17.6778 28.3729 17.548 28.5118C17.4183 28.6506 17.2407 28.7351 17.0511 28.748C16.8615 28.761 16.6741 28.7015 16.5267 28.5816C16.3793 28.4617 16.2829 28.2902 16.257 28.102L16.25 28V19.93C15.3708 19.7619 14.5733 19.3039 13.985 18.6291C13.3968 17.9544 13.0517 17.1019 13.005 16.208L13 16V12C13.0001 11.81 13.0722 11.6271 13.202 11.4882C13.3317 11.3494 13.5093 11.2649 13.6989 11.252C13.8885 11.239 14.0759 11.2985 14.2233 11.4184C14.3707 11.5383 14.4671 11.7098 14.493 11.898L14.5 12V16C14.5 17.12 15.236 18.067 16.25 18.386V12C16.2501 11.81 16.3222 11.6271 16.452 11.4882C16.5817 11.3494 16.7593 11.2649 16.9489 11.252C17.1385 11.239 17.3259 11.2985 17.4733 11.4184C17.6207 11.5383 17.7171 11.7098 17.743 11.898L17.75 12V18.385C18.2272 18.2346 18.6483 17.9446 18.959 17.5524C19.2698 17.1603 19.4557 16.6839 19.493 16.185L19.5 16V12C19.5 11.8011 19.579 11.6103 19.7197 11.4697C19.8603 11.329 20.0511 11.25 20.25 11.25ZM25.5 21.5V12.878C25.0889 13.0235 24.7289 13.2852 24.4637 13.6314C24.1985 13.9775 24.0395 14.3932 24.006 14.828L24 15V21.5H25.5Z" fill="#2A5944"/>
</svg>
