<svg width="40" height="40" viewBox="0 0 40 40" fill="none" xmlns="http://www.w3.org/2000/svg">
<rect width="40" height="40" fill="#EFFBF6"/>
<path d="M25.3614 20.75C25.3614 21.164 25.0189 21.5 24.5954 21.5C24.1724 21.5 23.8299 21.164 23.8299 20.75C23.8299 20.336 24.1729 20 24.5954 20C25.0189 20 25.3614 20.336 25.3614 20.75ZM16.6809 25H18.7234V24H16.6809V25ZM18.7234 27H16.6809V26H18.7234V27Z" fill="#2A5944"/>
<path fill-rule="evenodd" clip-rule="evenodd" d="M21.6455 19.073C21.8955 19.073 21.937 19.0275 22.0165 18.94C22.063 18.89 22.1215 18.825 22.2415 18.7475C22.576 18.96 22.9652 19.0705 23.3615 19.0655L24.6275 18.6265C24.9804 18.3524 25.2261 17.9631 25.3215 17.5265C25.4134 17.0938 25.3467 16.6425 25.1335 16.255C24.9143 15.8594 24.5663 15.5506 24.1475 15.38C24.0476 14.957 23.8032 14.5821 23.4565 14.32L22.2205 13.908H22.0815C21.7997 13.5213 21.3878 13.2493 20.9215 13.142L18.7825 13C18.3425 13.035 17.927 13.21 17.6035 13.497C17.0782 13.3743 16.5258 13.4645 16.067 13.748C15.7517 13.9418 15.4998 14.2233 15.342 14.558L14.336 15.237C14.0868 15.5561 13.9513 15.9492 13.951 16.354C13.9485 16.5225 13.972 16.69 14.021 16.8515C13.7584 17.1733 13.6156 17.5762 13.617 17.9915C13.6183 18.4742 13.8111 18.9367 14.153 19.2775C14.1805 19.62 14.306 19.9485 14.516 20.2275C14.726 20.5075 15.011 20.7265 15.3425 20.8625C15.7204 21.0871 16.0433 21.3934 16.2875 21.759C16.5285 22.1215 16.6275 22.531 16.681 22.957H18.7825V20.968C18.7825 20.615 18.8855 20.269 19.081 19.969C19.111 19.9235 19.1385 19.879 19.1655 19.8365C19.3155 19.5975 19.4365 19.4035 19.7185 19.2715C20.0274 19.1595 20.3077 18.9805 20.5395 18.7475C20.869 18.9604 21.2531 19.0738 21.6455 19.073ZM22.4135 17.66L22.8 17.9075C22.9215 17.985 23.062 18.036 23.2095 18.0545L24.0935 17.748C24.21 17.625 24.288 17.4765 24.3215 17.319C24.3645 17.1165 24.3331 16.9052 24.233 16.724C24.1252 16.5311 23.9548 16.3808 23.75 16.298L23.2675 16.098L23.1515 15.598C23.116 15.4477 23.0405 15.3098 22.933 15.199L22.0515 14.905H21.5515L21.2465 14.481C21.1239 14.3134 20.9502 14.1902 20.7515 14.13L18.8025 14.001C18.6122 14.0271 18.4338 14.1084 18.2895 14.235L17.8945 14.5855L17.375 14.469C17.2463 14.4379 17.1128 14.4326 16.9821 14.4533C16.8514 14.4741 16.7261 14.5205 16.6135 14.59C16.4649 14.6809 16.3461 14.8132 16.2715 14.9705L16.154 15.2215L15.077 15.949C15.0075 16.0735 14.972 16.211 14.972 16.35V16.366C14.971 16.433 14.9805 16.501 15 16.566L15.15 17.063L14.821 17.4695C14.6995 17.6195 14.637 17.8005 14.6385 17.9825V17.99C14.6385 18.204 14.7235 18.415 14.8855 18.5785L15.1415 18.8365L15.171 19.1955C15.1835 19.3505 15.2405 19.502 15.3385 19.6325C15.437 19.764 15.5735 19.87 15.7365 19.9365L15.808 19.966L15.8745 20.006C16.026 20.096 16.1715 20.196 16.309 20.305C16.4865 20.4415 16.7075 20.641 16.994 20.999C17.294 21.374 17.458 21.7935 17.5025 21.956H17.764V21.5185C17.764 21.475 17.763 21.4225 17.762 21.364C17.757 21.077 17.7485 20.6355 17.838 20.288C17.9455 19.87 18.167 19.462 18.444 19.073C18.7215 18.6845 19.1405 18.413 19.298 18.3545C19.4555 18.296 19.615 18.2355 19.7705 18.083C19.8955 17.961 20.2405 17.6105 20.397 17.4505L21.097 17.9095C21.231 17.997 21.4085 18.046 21.48 18.0595C21.4995 18.0445 21.56 17.997 21.6475 17.9325C21.7355 17.8685 22.0805 17.6445 22.2425 17.54L22.4135 17.66Z" fill="#2A5944"/>
<path fill-rule="evenodd" clip-rule="evenodd" d="M28.28 20.683C28.28 20.683 29.606 21.851 29.431 22.788C29.256 23.725 27.5295 23.983 27.5295 23.983C27.5295 27.7695 23.8365 27.5285 21.9935 27.1725C21.6488 27.1078 21.308 27.0244 20.9725 26.9225V27.6345C20.9725 27.6345 20.934 27.7535 20.8155 27.9215C20.534 28.32 19.801 28.9925 18.058 28.9925C16.8915 29.083 14.895 28.3355 14.366 27.2815V24.057C12.501 22.692 11.064 20.8535 11.064 18.47C11.064 16.4885 11.908 14.5885 13.411 13.188C14.914 11.787 16.9525 11 19.078 11C20.6939 10.9969 22.2934 11.3251 23.7775 11.9645C24.9375 12.4195 25.9535 13.1445 26.7275 14.0695C27.4355 15.041 27.8275 16.1825 27.8575 17.356C27.8635 17.626 27.86 17.882 27.856 18.1295C27.843 19.003 27.831 19.7725 28.28 20.683ZM27.4475 21.295L27.36 21.1175C26.7955 19.9725 26.816 18.9095 26.833 18.009C26.837 17.789 26.841 17.5795 26.8365 17.3805C26.8084 16.4075 26.4878 15.4656 25.9165 14.6775C25.256 13.898 24.3905 13.2825 23.3975 12.8925L23.381 12.886L23.3645 12.879C22.0114 12.2963 20.5532 11.9971 19.08 12H19.0785C17.2085 12 15.4235 12.693 14.116 13.912C12.8095 15.1295 12.086 16.7705 12.086 18.47C12.086 20.411 13.2455 21.9885 14.978 23.256L15.388 23.556V26.991C15.558 27.1895 15.889 27.4365 16.386 27.651C16.9955 27.9145 17.613 28.024 17.978 27.996L18.018 27.9925H18.0585C19.0945 27.9925 19.583 27.714 19.7935 27.543C19.866 27.4845 19.917 27.429 19.9515 27.3855V25.5425L21.2895 25.9725H21.291L21.2985 25.975L21.3415 25.988C21.3815 25.9995 21.4425 26.0175 21.5225 26.0385C21.6825 26.081 21.915 26.138 22.195 26.192C22.763 26.302 23.487 26.392 24.185 26.347C24.8945 26.302 25.4635 26.126 25.8435 25.8095C26.185 25.525 26.5085 25.015 26.5085 23.9835V23.1245L27.372 22.9955L27.3775 22.9945L27.413 22.988C27.6231 22.9489 27.8291 22.8898 28.028 22.8115C28.1995 22.743 28.3235 22.6715 28.397 22.61C28.4061 22.6024 28.415 22.5944 28.4235 22.586C28.4143 22.5354 28.3992 22.4861 28.3785 22.439C28.3052 22.2749 28.212 22.1204 28.101 21.979C27.9503 21.7817 27.7831 21.5977 27.601 21.429L27.597 21.4265V21.426L27.596 21.4255L27.5955 21.4245L27.448 21.2945L27.4475 21.295ZM28.4415 22.565V22.566L28.44 22.567C28.4404 22.5663 28.4409 22.5656 28.4415 22.565Z" fill="#2A5944"/>
</svg>
