<svg width="41" height="40" viewBox="0 0 41 40" fill="none" xmlns="http://www.w3.org/2000/svg">
<rect width="40" height="40" transform="translate(0.5)" fill="#EFFBF6"/>
<g clip-path="url(#clip0_57_2662)">
<path d="M23.1945 27.3391L17.3955 23.99L17.97 22.9958L23.7679 26.345L23.1945 27.3391Z" fill="#2A5944"/>
<path d="M29.1116 29.246C30.7864 27.6642 31.8476 25.442 31.8476 22.9617C31.8476 19.9059 30.2426 17.1496 27.747 15.6016L30.543 10.7619L30.1039 10.5087L30.7935 9.30949L28.9856 8.26587L28.2945 9.46324L27.8321 9.19624L20.9584 21.1032L21.5588 21.4497L20.7064 22.9242L22.2169 23.7965L23.0696 22.3212L23.6693 22.6677L26.5597 17.6619C27.4509 18.2298 28.1846 19.0131 28.6931 19.9395C29.2016 20.8658 29.4686 21.9054 29.4694 22.9621C29.4694 26.4271 26.6486 29.2464 23.1832 29.2464H18.1185V31.6257H32.3752V29.2464H29.1124L29.1116 29.246ZM16.4561 10.9494V9.06049H16.6886L16.6852 8.60749H14.5669L14.5703 9.06049H14.82V10.9494H13.2394V9.06049H13.4711L13.4685 8.60749H11.3482L11.3524 9.06049H11.6021V10.9494H9.28125V20.411H18.7571V10.9494H16.4569H16.4561ZM17.9546 19.61H10.0826V11.7504H11.6018V17.7954C11.6018 18.2529 11.9756 18.6245 12.4267 18.6245C12.8786 18.6226 13.239 18.2521 13.239 17.7954V11.7504H14.8196V17.7954C14.8196 18.2529 15.1939 18.6245 15.645 18.6245C16.0969 18.6226 16.4573 18.2521 16.4565 17.7954V11.7504H17.9546V19.61Z" fill="#2A5944"/>
</g>
<defs>
<clipPath id="clip0_57_2662">
<rect width="24" height="24" fill="white" transform="translate(9 8)"/>
</clipPath>
</defs>
</svg>
