<svg width="179" height="40" viewBox="0 0 179 40" fill="none" xmlns="http://www.w3.org/2000/svg">
<path d="M15.7664 29.7694C17.8754 26.737 21.2435 28.1535 22.0514 31.9413C23.1951 37.366 28.6198 38.09 28.6198 38.09C28.6198 38.09 24.6851 41.6785 18.8617 38.9189C15.0319 37.0932 14.3289 31.8259 15.7664 29.7694Z" fill="#FBFBFB"/>
<path d="M23.898 29.8745C23.2475 26.2441 26.6261 24.8485 29.8788 26.968C34.5165 29.9899 38.871 26.6743 38.871 26.6743C38.871 26.6743 38.6296 32.0045 32.5544 34.1555C28.5567 35.5825 24.3387 32.3403 23.898 29.8745Z" fill="#FBFBFB"/>
<path d="M29.7318 24.1979C26.7099 22.0889 28.1159 18.7208 31.9038 17.9234C37.3284 16.7797 38.0524 11.355 38.0524 11.355C38.0524 11.355 41.6409 15.2897 38.8709 21.1131C37.0556 24.9429 31.7884 25.6354 29.7318 24.1979Z" fill="#FBFBFB"/>
<path d="M29.8369 16.0662C26.2065 16.7168 24.8109 13.3276 26.9305 10.0854C29.9523 5.44769 26.6367 1.09326 26.6367 1.09326C26.6367 1.09326 31.9669 1.33459 34.1284 7.40981C35.5449 11.4075 32.3132 15.6255 29.8369 16.0662Z" fill="#FBFBFB"/>
<path d="M24.1603 10.2323C22.0513 13.2646 18.6832 11.8481 17.8858 8.06031C16.7421 2.64613 11.3174 1.90115 11.3174 1.90115C11.3174 1.90115 15.2521 -1.67682 21.0755 1.08273C24.9053 2.90845 25.5978 8.18623 24.1603 10.2323Z" fill="#FBFBFB"/>
<path d="M16.0286 10.1273C16.6792 13.7682 13.29 15.1532 10.0478 13.0337C5.41009 10.0013 1.05566 13.3275 1.05566 13.3275C1.05566 13.3275 1.29699 8.00775 7.37221 5.84627C11.3699 4.42977 15.5879 7.66149 16.0286 10.1273Z" fill="#FBFBFB"/>
<path d="M10.1947 15.8037C13.227 17.9127 11.8105 21.2809 8.02272 22.0888C2.59804 23.222 1.86356 28.6572 1.86356 28.6572C1.86356 28.6572 -1.71442 24.7224 1.04513 18.8991C2.87085 15.0693 8.14863 14.3662 10.1947 15.8037Z" fill="#FBFBFB"/>
<path d="M10.0897 23.9356C13.7306 23.2851 15.1156 26.6742 12.9961 29.9059C9.96376 34.5542 13.2899 38.9191 13.2899 38.9191C13.2899 38.9191 7.95967 38.6673 5.80869 32.592C4.38169 28.6049 7.62391 24.3763 10.0897 23.9356Z" fill="#FBFBFB"/>
<path d="M50.6536 32.058V28.1994L51.377 27.7171V12.2828L50.6536 11.8005V7.94189H61.6781L64.8821 11.1459V19.931L63.0217 21.8259L64.5031 27.5793L65.3644 28.1994V32.058H59.4387V28.1994L60.0588 27.786L58.853 23.135H55.7179V27.7171L56.4414 28.1994V32.058H50.6536ZM55.7179 18.7941H59.8866L60.5412 18.1396V12.9374L59.8866 12.2828H55.7179V18.7941ZM67.1214 32.058V28.1994L67.8449 27.7171V12.2828L67.1214 11.8005V7.94189H79.6618V13.0063H75.8032L75.3209 12.2828H72.1858V17.8295H77.7325V22.1704H72.1858V27.7171H75.3209L75.8032 26.9936H79.6618V32.058H67.1214ZM84.9329 32.058L81.7289 28.854V11.1459L84.9329 7.94189H92.5122L95.7162 11.1459V15.659H91.3753V12.9374L90.7207 12.2828H86.7244L86.0698 12.9374V27.0625L86.7244 27.7171H90.7207L91.3753 27.0625V22.1704H89.9283L89.2049 21.6881V17.8295H95.7162V28.854L92.5122 32.058H84.9329ZM97.7833 32.058V28.1994L98.5068 27.7171V12.2828L97.7833 11.8005V7.94189H110.324V13.0063H106.465L105.983 12.2828H102.848V17.8295H108.394V22.1704H102.848V27.7171H105.983L106.465 26.9936H110.324V32.058H97.7833ZM112.391 32.058V28.1994L113.114 27.7171V12.2828L112.391 11.8005V7.94189H117.731L122.761 20.8268V12.2828L122.037 11.8005V7.94189H127.825V11.8005L127.102 12.2828V32.058H122.485L117.455 19.1731V27.7171L118.179 28.1994V32.058H112.391ZM129.892 32.058V28.1994L130.616 27.7171V12.2828L129.892 11.8005V7.94189H141.399L144.603 11.1459V28.854L141.399 32.058H129.892ZM134.957 27.7171H139.608L140.262 27.0625V12.9374L139.608 12.2828H134.957V27.7171ZM150.598 32.058L147.394 28.854V12.2828L146.67 11.8005V7.94189H152.458V11.8005L151.734 12.2828V27.0625L152.389 27.7171H156.385L157.04 27.0625V12.2828L156.317 11.8005V7.94189H162.104V11.8005L161.381 12.2828V28.854L158.177 32.058H150.598ZM167.375 32.058L164.171 28.854V11.1459L167.375 7.94189H175.196L178.4 11.1459V28.854L175.196 32.058H167.375ZM169.167 27.7171H173.404L174.059 27.0625V12.9374L173.404 12.2828H169.167L168.512 12.9374V27.0625L169.167 27.7171Z" fill="#FBFBFB"/>
</svg>
