<svg width="70" height="70" viewBox="0 0 70 70" fill="none" xmlns="http://www.w3.org/2000/svg">
<path d="M35 4.375C18.0879 4.375 4.375 18.0879 4.375 35C4.375 51.9121 18.0879 65.625 35 65.625C51.9121 65.625 65.625 51.9121 65.625 35C65.625 18.0879 51.9121 4.375 35 4.375ZM35 60.4297C20.959 60.4297 9.57031 49.041 9.57031 35C9.57031 20.959 20.959 9.57031 35 9.57031C49.041 9.57031 60.4297 20.959 60.4297 35C60.4297 49.041 49.041 60.4297 35 60.4297Z" fill="#FBFBFB"/>
<path d="M46.9424 43.6543L37.1943 36.6064V19.6875C37.1943 19.3867 36.9482 19.1406 36.6475 19.1406H33.3594C33.0586 19.1406 32.8125 19.3867 32.8125 19.6875V38.5137C32.8125 38.6914 32.8945 38.8555 33.0381 38.958L44.3447 47.2021C44.5908 47.3799 44.9326 47.3252 45.1104 47.0859L47.0654 44.4199C47.2432 44.167 47.1885 43.8252 46.9424 43.6543Z" fill="#FBFBFB"/>
</svg>
