<svg width="71" height="70" viewBox="0 0 71 70" fill="none" xmlns="http://www.w3.org/2000/svg">
<path d="M28.1734 2.87929C27.8741 2.88818 27.5288 2.95818 27.1077 3.10392C20.9044 5.2515 11.4609 10.9029 3.09277 13.4343C4.57727 14.354 6.19479 15.1655 7.86986 15.8091C9.74236 14.9496 11.5712 14.095 13.1218 13.2376C15.0204 12.1879 16.4867 11.095 17.0973 10.2026L18.9025 11.4379C17.9004 12.9024 16.1975 14.0368 14.1803 15.152C13.1771 15.7067 12.0917 16.2471 10.9717 16.7795C11.9992 17.0268 13.0313 17.2019 14.0524 17.2863C14.5143 17.3246 14.9728 17.3451 15.4274 17.3486C17.5937 16.0052 19.6435 14.2711 20.3042 13.0241L22.2371 14.0478C21.7635 14.942 21.0505 15.8014 20.1955 16.6038C22.3324 15.8521 24.2683 14.4934 25.8748 12.3514L26.8639 11.0325L27.6946 12.4566C28.3378 13.5591 29.2044 14.4815 30.1877 15.2754C30.9167 15.1639 31.5595 15.0876 32.2187 15.05V10.8123C30.8925 9.81189 30.0312 8.22417 30.0312 6.44533C30.0308 5.72692 30.1734 5.01561 30.4506 4.35285C30.1035 3.86708 29.7451 3.48496 29.3852 3.24925C29.0882 3.0547 28.7939 2.92318 28.4362 2.8879C28.3489 2.87967 28.2611 2.87679 28.1734 2.87929ZM42.7009 2.87929C42.6541 2.88066 42.6083 2.88339 42.5636 2.8879C42.206 2.92318 41.9116 3.0547 41.6147 3.24925C41.2545 3.48496 40.8963 3.86722 40.5492 4.35285C40.8264 5.01561 40.969 5.72692 40.9687 6.44533C40.9687 8.22417 40.1073 9.81189 38.7812 10.8123V15.05C39.4652 15.0895 40.2104 15.1774 40.8121 15.2754C41.7954 14.4815 42.6621 13.5591 43.3052 12.4566L44.1359 11.0325L45.1249 12.3514C46.7314 14.4934 48.6674 15.8521 50.8043 16.6038C49.9493 15.8014 49.2362 14.942 48.7627 14.0478L50.6956 13.0241C51.3563 14.2712 53.4061 16.0052 55.5724 17.3485C56.0314 17.345 56.49 17.3243 56.9474 17.2864C57.9687 17.2018 59.0006 17.0267 60.0281 16.7795C58.9081 16.2471 57.8227 15.7067 56.8194 15.152C54.8023 14.0368 53.0996 12.9024 52.0973 11.4379L53.9025 10.2026C54.5131 11.095 55.9793 12.1879 57.878 13.2378C59.4284 14.095 61.2574 14.9495 63.1299 15.8092C64.805 15.1655 66.4225 14.354 67.907 13.4343C59.5389 10.9029 50.0955 5.25164 43.8921 3.10392C43.4109 2.93726 43.0285 2.86999 42.7009 2.87943V2.87929ZM35.4999 3.28124C33.6747 3.28124 32.2187 4.7373 32.2187 6.56249C32.2187 8.38769 33.6747 9.84375 35.4999 9.84375C37.3251 9.84375 38.7812 8.38769 38.7812 6.56249C38.7812 4.7373 37.3251 3.28124 35.4999 3.28124ZM34.4062 11.8032V15.1719C34.788 15.2548 35.1935 15.3921 35.4999 15.5671C35.8665 15.3643 36.2218 15.2573 36.5937 15.1719V11.8032C36.24 11.8757 35.8741 11.9139 35.4999 11.9139C35.1257 11.9139 34.7598 11.8757 34.4062 11.8032ZM32.6907 17.2246C32.4775 17.2272 32.2644 17.2363 32.0517 17.252C30.2932 17.3808 28.1139 17.9465 27.2183 18.371C25.1802 19.3371 24.327 20.2565 23.9077 21.1038C23.4883 21.9511 23.4687 22.854 23.4687 23.9453C23.4687 25.2213 24.0564 26.1626 25.1292 27.0642C26.2022 27.9657 27.7484 28.7241 29.3402 29.3542C32.2787 30.8968 35.378 32.4908 37.8233 34.2739C38.4953 34.749 39.3522 35.0474 40.0105 35.392C40.6554 34.714 40.9687 34.089 40.9687 33.5156C40.9687 33.1738 40.8775 32.7962 40.7098 32.397C39.04 29.2413 35.9006 27.7192 32.6008 25.9001L32.593 25.9087C31.1751 25.3587 29.8567 25.0391 28.9374 25.0391L28.4482 22.9668C30.6129 21.8846 32.1991 20.9772 33.1429 20.1126C34.0665 19.2665 34.4097 18.5741 34.4019 17.4722C33.8541 17.2322 33.232 17.219 32.6907 17.2246ZM38.3091 17.2246C37.7384 17.2439 37.0377 17.2334 36.5979 17.4721C36.5901 18.5741 36.9333 19.2665 37.8571 20.1126C38.8007 20.9772 40.3869 21.8846 42.5516 22.9668L42.0624 25.0391C40.9737 25.0391 39.3264 25.486 37.6156 26.2345C38.9897 27.1139 40.2952 28.1385 41.3751 29.4626C41.4701 29.426 41.5648 29.3918 41.6598 29.3542C43.2514 28.7241 44.7975 27.9657 45.8706 27.0642C46.9433 26.1626 47.5312 25.2212 47.5312 23.9453C47.5312 22.854 47.5115 21.9511 47.0923 21.1038C46.6728 20.2565 45.8196 19.3371 43.7815 18.371C42.886 17.9465 40.7066 17.3808 38.9481 17.252C38.7354 17.2363 38.5223 17.2272 38.3091 17.2246ZM35.4999 20.7498C35.2392 21.103 34.9446 21.4298 34.6203 21.7257C34.5508 21.7894 34.4788 21.8523 34.4062 21.9148V24.2595C34.776 24.428 35.1411 24.6067 35.501 24.7954C35.8603 24.6069 36.2246 24.4282 36.5937 24.2595V21.9148C36.5213 21.8529 36.45 21.7898 36.3796 21.7257C36.0552 21.4298 35.7606 21.103 35.4999 20.7498ZM30.3679 32.22C30.15 32.6848 30.0312 33.1237 30.0312 33.5156C30.0312 34.1764 30.4454 34.9054 31.3056 35.7052C32.1659 36.505 33.4067 37.3001 34.6807 38.0376C35.9546 38.7752 37.2554 39.4568 38.2999 40.1347C38.8222 40.4738 39.2828 40.8074 39.6664 41.2025C40.05 41.5976 40.4218 42.1061 40.4218 42.8125C40.4218 43.3936 40.1277 43.9458 39.7802 44.2896C39.4325 44.6336 39.0478 44.8451 38.6489 45.0371C38.3355 45.188 38.005 45.3247 37.67 45.4606C38.5666 46.1196 39.392 46.835 40.0581 47.5431C40.43 47.3726 40.8057 47.2017 41.1766 47.0226C42.1312 46.5619 43.0311 46.0484 43.628 45.4856C44.225 44.923 44.5233 44.396 44.5233 43.6328C44.5233 42.2732 44.0314 41.2476 43.2128 40.311C42.3941 39.3742 41.2314 38.573 40.0186 37.8848C38.8059 37.1964 37.5583 36.6252 36.5407 36.0475C36.032 35.7588 35.5776 35.4741 35.1861 35.1069C35.1662 35.088 35.1465 35.0671 35.1267 35.0476C33.6934 34.0851 31.8457 32.961 30.3679 32.22ZM30.6968 38.0506C29.5885 38.7012 28.5413 39.4479 27.7871 40.311C26.9684 41.2475 26.4765 42.2732 26.4765 43.6328C26.4765 44.3961 26.7748 44.923 27.3718 45.4856C27.9688 46.0484 28.8686 46.5619 29.8232 47.0228C30.1841 47.1969 30.5478 47.3636 30.9088 47.5297C33.5134 48.8678 35.9263 50.142 38.2895 50.7854C38.841 50.5977 38.9523 50.0836 38.8276 49.4553C36.7965 47.4123 34.7523 46.201 32.3509 45.0371C31.9521 44.8451 31.5673 44.6336 31.2197 44.2896C30.8721 43.9458 30.578 43.3936 30.578 42.8125C30.578 42.1061 30.9499 41.5978 31.3334 41.2025C31.717 40.8074 32.1775 40.4738 32.6999 40.1347C32.8972 40.0075 33.0965 39.8835 33.2978 39.7627C32.405 39.2391 31.5079 38.678 30.6968 38.0506ZM35.4999 41.0153C35.1103 41.2361 34.7397 41.4487 34.4062 41.6497V43.5094C34.5087 43.5567 34.6118 43.607 34.7149 43.6573C34.9671 43.7612 35.2276 43.8703 35.4996 43.9938C35.8838 43.8196 36.2545 43.6671 36.5937 43.5306V41.6499C36.232 41.4334 35.8674 41.2218 35.4999 41.0153ZM33.067 51.1074C33.1474 51.6877 33.4175 52.2175 33.8632 52.7681C34.401 53.4321 35.1853 54.0792 36.0129 54.6902C36.8404 55.3012 37.7034 55.8716 38.425 56.4903C39.1465 57.1088 39.8749 57.8287 39.8749 58.9453C39.8749 60.2988 39.0792 61.3972 38.1018 62.6367C37.1245 63.8761 35.8664 65.1709 34.6141 66.3655C34.3342 66.6325 34.0691 66.8668 33.7931 67.1215C34.9183 66.5323 36.0859 65.8182 37.1859 65.0181C40.248 62.7908 42.6093 59.8698 42.6093 57.8516C42.6093 57.2409 42.381 56.7519 41.9282 56.2168C41.4753 55.6816 40.7975 55.1543 40.0699 54.6473C39.3423 54.1401 38.5732 53.6583 37.9149 53.0931C37.8376 53.0265 37.7617 52.9584 37.6871 52.8888C35.9116 52.4167 34.4205 51.7869 33.067 51.1074ZM31.9906 53.9213C31.6387 54.1655 31.2797 54.4035 30.9299 54.6473C30.2025 55.1543 29.5245 55.6816 29.0717 56.2168C28.619 56.7519 28.3905 57.2409 28.3905 57.8516C28.3905 58.8515 28.9325 60.0858 29.9376 61.3529C30.8107 62.4535 32.0069 63.5607 33.332 64.5632C33.5654 64.3386 33.7967 64.1118 34.0259 63.8829C33.6437 63.4689 33.28 63.0554 32.9498 62.6479C31.9456 61.4089 31.1249 60.3148 31.1249 58.9453C31.1249 57.8287 31.8533 57.1088 32.5748 56.4903C32.9146 56.1991 33.2871 55.9186 33.671 55.6395C33.1354 55.194 32.6158 54.7035 32.1634 54.1446C32.1044 54.0713 32.0468 53.9969 31.9906 53.9213ZM35.4991 57.0202C35.1031 57.3047 34.7253 57.5768 34.4062 57.823V60.9567C34.485 61.0631 34.566 61.1678 34.6491 61.2708C34.9157 61.5999 35.2142 61.9419 35.5333 62.2903C35.8395 61.9459 36.1279 61.6074 36.3843 61.282C36.4576 61.189 36.5265 61.097 36.5937 61.0054V57.823C36.2729 57.5755 35.8978 57.3065 35.4991 57.0202Z" fill="#FBFBFB"/>
</svg>
