<svg width="41" height="40" viewBox="0 0 41 40" fill="none" xmlns="http://www.w3.org/2000/svg">
<rect width="40" height="40" transform="translate(0.5)" fill="#EFFBF6"/>
<path d="M30.2901 21.9L27.0001 20L30.2901 18.1C30.7701 17.82 30.9301 17.21 30.6601 16.73L28.6601 13.27C28.5262 13.0406 28.3074 12.8731 28.051 12.8039C27.7946 12.7346 27.5212 12.7691 27.2901 12.9L24.0001 14.8V11C24.0001 10.45 23.5501 10 23.0001 10H19.0001C18.4501 10 18.0001 10.45 18.0001 11V14.8L14.7101 12.9C14.4789 12.7691 14.2055 12.7346 13.9491 12.8039C13.6927 12.8731 13.4739 13.0406 13.3401 13.27L11.3401 16.73C11.0601 17.21 11.2301 17.82 11.7101 18.1L15.0001 20L11.7101 21.9C11.2301 22.18 11.0701 22.79 11.3401 23.27L13.3401 26.73C13.6201 27.21 14.2301 27.37 14.7101 27.1L18.0001 25.2V29C18.0001 29.55 18.4501 30 19.0001 30H23.0001C23.5501 30 24.0001 29.55 24.0001 29V25.2L27.2901 27.1C27.7701 27.38 28.3801 27.21 28.6601 26.73L30.6601 23.27C30.9401 22.79 30.7701 22.18 30.2901 21.9ZM27.4301 24.87L22.7501 22.17C22.4201 21.97 22.0001 22.21 22.0001 22.6V28H20.0001V22.6C20.0001 22.22 19.5801 21.97 19.2501 22.17L14.5701 24.87L13.5701 23.14L18.2501 20.44C18.5801 20.25 18.5801 19.77 18.2501 19.57L13.5701 16.87L14.5701 15.14L19.2501 17.84C19.5801 18.03 20.0001 17.79 20.0001 17.4V12H22.0001V17.4C22.0001 17.78 22.4201 18.03 22.7501 17.83L27.4301 15.13L28.4301 16.86L23.7501 19.56C23.4201 19.75 23.4201 20.23 23.7501 20.43L28.4301 23.13L27.4301 24.87Z" fill="#2A5944"/>
</svg>
