<svg width="40" height="40" viewBox="0 0 40 40" fill="none" xmlns="http://www.w3.org/2000/svg">
<rect width="40" height="40" fill="#EFFBF6"/>
<path d="M24.1999 11.5C23.1999 10.5 21.8999 10 20.6999 10C19.4999 10 18.0999 10.5 17.1999 11.5L11.3999 17.1C9.3999 19.1 9.3999 22.2 11.3999 24.2C13.3999 26.2 16.4999 26.2 18.4999 24.2L24.1999 18.5C26.0999 16.6 26.0999 13.4 24.1999 11.5ZM22.7999 17.1L19.9999 19.9L16.3999 16.4L11.9999 20.8C11.9999 20 12.1999 19.1 12.8999 18.5L18.5999 12.8C19.0999 12.3 19.8999 12 20.5999 12C21.2999 12 22.0999 12.3 22.6999 12.8C23.8999 14.1 23.8999 15.9 22.7999 17.1ZM27.5999 15.1C27.5999 15.9 27.3999 16.6 27.1999 17.4C28.1999 18.6 28.1999 20.4 27.0999 21.5L24.2999 24.3L22.7999 22.8L19.9999 25.6C18.6999 26.9 16.8999 27.6 15.1999 27.6C15.3999 27.9 15.5999 28.2 15.8999 28.5C17.8999 30.5 20.9999 30.5 22.9999 28.5L28.6999 22.8C30.6999 20.8 30.6999 17.7 28.6999 15.7C28.1999 15.5 27.8999 15.3 27.5999 15.1Z" fill="#2A5944"/>
</svg>
