<svg width="179" height="40" viewBox="0 0 179 40" fill="none" xmlns="http://www.w3.org/2000/svg">
<path d="M15.7664 29.7696C17.8754 26.7373 21.2435 28.1538 22.0514 31.9416C23.1951 37.3663 28.6198 38.0903 28.6198 38.0903C28.6198 38.0903 24.6851 41.6787 18.8617 38.9192C15.0319 37.0935 14.3289 31.8262 15.7664 29.7696Z" fill="#2A5944"/>
<path d="M23.898 29.8745C23.2475 26.2441 26.6261 24.8485 29.8788 26.968C34.5165 29.9899 38.871 26.6743 38.871 26.6743C38.871 26.6743 38.6296 32.0045 32.5544 34.1555C28.5567 35.5825 24.3387 32.3403 23.898 29.8745Z" fill="#2A5944"/>
<path d="M29.7318 24.1981C26.7099 22.089 28.1159 18.7209 31.9038 17.9235C37.3284 16.7798 38.0524 11.3551 38.0524 11.3551C38.0524 11.3551 41.6409 15.2898 38.8709 21.1132C37.0556 24.943 31.7884 25.6355 29.7318 24.1981Z" fill="#2A5944"/>
<path d="M29.8369 16.0663C26.2065 16.7169 24.8109 13.3278 26.9305 10.0855C29.9523 5.44781 26.6367 1.09338 26.6367 1.09338C26.6367 1.09338 31.9669 1.33471 34.1284 7.40993C35.5449 11.4076 32.3132 15.6256 29.8369 16.0663Z" fill="#2A5944"/>
<path d="M24.1603 10.2324C22.0513 13.2648 18.6832 11.8483 17.8858 8.06044C16.7421 2.64625 11.3174 1.90128 11.3174 1.90128C11.3174 1.90128 15.2521 -1.6767 21.0755 1.08285C24.9053 2.90857 25.5978 8.18635 24.1603 10.2324Z" fill="#2A5944"/>
<path d="M16.0286 10.1275C16.6792 13.7684 13.29 15.1535 10.0478 13.0339C5.41009 10.0016 1.05566 13.3277 1.05566 13.3277C1.05566 13.3277 1.29699 8.00799 7.37221 5.84651C11.3699 4.43001 15.5879 7.66173 16.0286 10.1275Z" fill="#2A5944"/>
<path d="M10.1947 15.804C13.227 17.913 11.8105 21.2811 8.02272 22.089C2.59804 23.2222 1.86356 28.6574 1.86356 28.6574C1.86356 28.6574 -1.71442 24.7227 1.04513 18.8993C2.87085 15.0695 8.14863 14.3665 10.1947 15.804Z" fill="#2A5944"/>
<path d="M10.0897 23.9358C13.7306 23.2852 15.1156 26.6743 12.9961 29.9061C9.96376 34.5543 13.2899 38.9192 13.2899 38.9192C13.2899 38.9192 7.95967 38.6674 5.80869 32.5922C4.38169 28.605 7.62391 24.3765 10.0897 23.9358Z" fill="#2A5944"/>
<path d="M50.6536 32.058V28.1994L51.377 27.7171V12.2828L50.6536 11.8005V7.94189H61.6781L64.8821 11.1459V19.931L63.0217 21.8259L64.5031 27.5793L65.3644 28.1994V32.058H59.4387V28.1994L60.0588 27.786L58.853 23.135H55.7179V27.7171L56.4414 28.1994V32.058H50.6536ZM55.7179 18.7941H59.8866L60.5412 18.1396V12.9374L59.8866 12.2828H55.7179V18.7941ZM67.1214 32.058V28.1994L67.8449 27.7171V12.2828L67.1214 11.8005V7.94189H79.6618V13.0063H75.8032L75.3209 12.2828H72.1858V17.8295H77.7325V22.1704H72.1858V27.7171H75.3209L75.8032 26.9936H79.6618V32.058H67.1214ZM84.9329 32.058L81.7289 28.854V11.1459L84.9329 7.94189H92.5122L95.7162 11.1459V15.659H91.3753V12.9374L90.7207 12.2828H86.7244L86.0698 12.9374V27.0625L86.7244 27.7171H90.7207L91.3753 27.0625V22.1704H89.9283L89.2049 21.6881V17.8295H95.7162V28.854L92.5122 32.058H84.9329ZM97.7833 32.058V28.1994L98.5068 27.7171V12.2828L97.7833 11.8005V7.94189H110.324V13.0063H106.465L105.983 12.2828H102.848V17.8295H108.394V22.1704H102.848V27.7171H105.983L106.465 26.9936H110.324V32.058H97.7833ZM112.391 32.058V28.1994L113.114 27.7171V12.2828L112.391 11.8005V7.94189H117.731L122.761 20.8268V12.2828L122.037 11.8005V7.94189H127.825V11.8005L127.102 12.2828V32.058H122.485L117.455 19.1731V27.7171L118.179 28.1994V32.058H112.391ZM129.892 32.058V28.1994L130.616 27.7171V12.2828L129.892 11.8005V7.94189H141.399L144.603 11.1459V28.854L141.399 32.058H129.892ZM134.957 27.7171H139.608L140.262 27.0625V12.9374L139.608 12.2828H134.957V27.7171ZM150.598 32.058L147.394 28.854V12.2828L146.67 11.8005V7.94189H152.458V11.8005L151.734 12.2828V27.0625L152.389 27.7171H156.385L157.04 27.0625V12.2828L156.317 11.8005V7.94189H162.104V11.8005L161.381 12.2828V28.854L158.177 32.058H150.598ZM167.375 32.058L164.171 28.854V11.1459L167.375 7.94189H175.196L178.4 11.1459V28.854L175.196 32.058H167.375ZM169.167 27.7171H173.404L174.059 27.0625V12.9374L173.404 12.2828H169.167L168.512 12.9374V27.0625L169.167 27.7171Z" fill="#2A5944"/>
</svg>
